<?xml version="1.0" encoding="UTF-8"?>
<svg version="1.1" xmlns="http://www.w3.org/2000/svg" width="536" height="522" viewBox="208 61 536 522">
<path d="M0 0 C3.916 1.473 6.265 4.198 8.972 7.249 C10.03 8.44 11.103 9.615 12.175 10.792 C12.97 11.664 13.763 12.538 14.556 13.413 C20.783 20.266 27.331 25.795 35 31 C35.256 31.176 35.256 31.176 36.554 32.066 C48.245 40.03 60.752 46.454 73.434 52.68 C96.849 64.176 114.179 78.942 124.462 103.349 C125.201 105.618 125.293 107.645 125 110 C124.739 110.115 124.478 110.23 124.209 110.348 C112.741 115.487 104.103 122.721 99.327 134.686 C98.01 138.396 96.893 142.165 96 146 C95.918 146.329 95.835 146.658 95.751 146.996 C94.897 150.729 94.848 154.363 94.842 158.179 C94.838 158.891 94.832 159.604 94.827 160.316 C94.816 161.844 94.807 163.372 94.801 164.901 C94.79 167.344 94.77 169.787 94.748 172.23 C94.686 179.176 94.632 186.122 94.599 193.069 C94.427 227.026 94.427 227.026 92.637 240.281 C92.578 240.72 92.519 241.159 92.459 241.611 C90.533 255.47 86.158 269.161 79.732 281.583 C79.015 282.972 78.327 284.373 77.641 285.777 C68.749 303.482 54.219 318.429 36.625 327.5 C36.137 327.755 35.65 328.011 35.147 328.274 C32.003 329.812 29.493 330.343 26 330 C24.238 327.718 23.75 326.359 23.754 323.398 C23.752 323.045 23.749 322.692 23.747 322.329 C23.742 321.146 23.751 319.963 23.759 318.781 C23.759 317.924 23.757 317.068 23.754 316.211 C23.75 313.858 23.758 311.505 23.768 309.151 C23.776 306.614 23.774 304.076 23.772 301.538 C23.771 297.141 23.777 292.744 23.789 288.347 C23.805 281.99 23.81 275.633 23.813 269.276 C23.817 258.962 23.83 248.648 23.849 238.334 C23.867 228.314 23.882 218.295 23.89 208.275 C23.891 207.658 23.891 207.04 23.892 206.404 C23.894 203.306 23.897 200.208 23.899 197.11 C23.92 171.407 23.955 145.703 24 120 C23.34 120 22.68 120 22 120 C21.769 119.481 21.539 118.961 21.301 118.426 C18.657 112.675 15.959 107.987 9.794 105.591 C3.221 103.32 -2.338 103.185 -8.719 106.089 C-13.861 108.719 -17.503 112.977 -19.375 118.438 C-19.601 119.287 -19.817 120.14 -20 121 C-20.66 121 -21.32 121 -22 121 C-21.999 121.435 -21.998 121.87 -21.997 122.317 C-21.929 148.07 -21.878 173.823 -21.847 199.576 C-21.843 202.667 -21.839 205.757 -21.835 208.848 C-21.834 209.463 -21.834 210.078 -21.833 210.712 C-21.82 220.682 -21.796 230.651 -21.769 240.62 C-21.741 250.846 -21.724 261.071 -21.718 271.297 C-21.714 277.609 -21.701 283.922 -21.676 290.234 C-21.66 294.559 -21.656 298.885 -21.659 303.21 C-21.661 305.708 -21.658 308.205 -21.642 310.703 C-21.628 312.989 -21.627 315.274 -21.637 317.559 C-21.639 318.387 -21.635 319.215 -21.625 320.043 C-21.551 327.007 -21.551 327.007 -23.435 328.991 C-25.813 330.524 -27.078 330.294 -29.789 329.762 C-38.816 327.015 -47.051 320.164 -54 314 C-54.41 313.641 -54.819 313.282 -55.241 312.912 C-73.958 296.226 -84.571 271.478 -89.25 247.312 C-89.333 246.887 -89.417 246.461 -89.502 246.022 C-91.805 234.045 -92.136 222.086 -92.138 209.93 C-92.139 207.45 -92.152 204.971 -92.168 202.492 C-92.169 202.28 -92.169 202.28 -92.175 201.208 C-92.181 200.344 -92.186 199.479 -92.191 198.615 C-92.226 192.867 -92.253 187.119 -92.25 181.37 C-92.249 177.46 -92.265 173.549 -92.301 169.639 C-92.319 167.585 -92.329 165.533 -92.317 163.479 C-92.232 148.032 -95.046 132.118 -106.289 120.566 C-111.317 115.7 -116.707 112.025 -123 109 C-122.548 103.863 -120.689 99.701 -118.375 95.188 C-118.286 95.012 -118.286 95.012 -117.837 94.122 C-115.025 88.58 -111.909 83.598 -107.79 78.917 C-107.037 78.043 -106.342 77.147 -105.652 76.223 C-95.103 62.397 -76.68 54.668 -61.375 47.5 C-49.525 41.949 -39.013 35.453 -28.548 27.562 C-26.119 25.739 -23.763 24.267 -21 23 C-21 22.34 -21 21.68 -21 21 C-20.377 20.241 -20.377 20.241 -19.496 19.52 C-19.171 19.246 -18.846 18.973 -18.511 18.691 C-18.157 18.401 -17.803 18.111 -17.438 17.812 C-11.025 12.379 -5.364 6.464 0 0 Z " fill="#E0896E" transform="translate(475,81)"/>
<path d="M0 0 C1.562 48.26 -13.147 97.39 -44 145 C-44.437 145.605 -44.874 146.211 -45.311 146.816 C-59.55 166.503 -75.573 185.239 -95 200 C-95.699 200.541 -96.399 201.083 -97.098 201.625 C-99.041 203.118 -101.016 204.563 -103 206 C-103.353 206.26 -103.706 206.519 -104.07 206.787 C-126.609 223.307 -153.12 236.974 -181 241 C-183.805 238.848 -183.805 238.848 -184.285 236.761 C-184.391 235.207 -184.405 233.675 -184.388 232.118 C-184.393 231.527 -184.399 230.936 -184.404 230.327 C-184.415 228.706 -184.412 227.085 -184.403 225.464 C-184.395 223.744 -184.402 222.024 -184.407 220.304 C-184.413 217.397 -184.405 214.491 -184.391 211.583 C-184.377 208.643 -184.376 205.703 -184.391 202.763 C-184.682 142.897 -184.682 142.897 -164 121 C-151.735 108.801 -135.201 102.046 -119.823 94.692 C-94.744 82.697 -71.449 69.189 -49.795 51.644 C-49.258 51.209 -48.721 50.776 -48.183 50.343 C-45.159 47.907 -42.305 45.483 -39.875 42.438 C-39.379 41.84 -38.881 41.244 -38.383 40.648 C-38.149 40.367 -37.914 40.086 -37.673 39.796 C-36.733 38.684 -35.757 37.614 -34.75 36.562 C-34.456 36.254 -34.162 35.946 -33.859 35.629 C-33 35 -33 35 -31 35 C-30.751 34.429 -30.502 33.858 -30.246 33.27 C-28.939 30.664 -27.066 28.775 -25.062 26.688 C-21.103 22.431 -17.603 17.946 -14.188 13.25 C-14.072 13.092 -14.072 13.092 -13.49 12.293 C-10.839 8.649 -8.285 4.973 -5.888 1.155 C-4 -1.301 -2.788 -1.141 0 0 Z " fill="#ACAF96" transform="translate(675,322)"/>
<path d="M0 0 C2.278 1.204 3.252 2.947 4.629 5.078 C5.247 5.994 5.869 6.908 6.492 7.82 C6.826 8.309 7.159 8.797 7.502 9.3 C13.409 17.784 19.978 25.594 27.047 33.121 C28.844 35.035 30.575 36.984 32.261 38.996 C43.035 51.803 57.426 62.399 71.574 71.209 C72.262 71.639 72.95 72.069 73.637 72.501 C89.106 82.221 105.265 90.283 121.753 98.103 C135.962 104.845 149.326 111.553 160.566 122.828 C160.931 123.185 161.296 123.542 161.671 123.909 C176.016 138.105 179.536 157.802 179.883 177.23 C179.904 178.228 179.925 179.226 179.946 180.224 C180.001 182.863 180.051 185.502 180.099 188.14 C180.129 189.769 180.161 191.398 180.193 193.027 C180.502 208.628 180.728 224.224 180.566 239.828 C177.976 241.469 175.757 242.053 172.708 241.457 C170.811 241.011 168.939 240.494 167.066 239.953 C166.658 239.84 166.249 239.727 165.828 239.61 C150.354 235.32 135.325 229.537 121.48 221.366 C120.545 220.816 119.607 220.272 118.668 219.729 C102.907 210.568 88.404 199.284 75.341 186.58 C74.512 185.775 73.68 184.973 72.848 184.172 C65.205 176.791 58.041 169.272 51.566 160.828 C51.387 160.598 51.387 160.598 50.479 159.433 C35.64 140.357 24.002 120.061 14.566 97.828 C14.395 97.424 14.223 97.019 14.046 96.603 C1.438 66.686 -4.739 33.228 -3.434 0.828 C-2.075 0.066 -1.597 -0.191 0 0 Z " fill="#ACAF96" transform="translate(280.43359375,321.171875)"/>
<path d="M0 0 C0 0.66 0 1.32 0 2 C0.588 2.246 1.176 2.492 1.781 2.746 C4.322 4.024 5.81 5.817 7.5 8.062 C7.803 8.463 8.105 8.864 8.417 9.277 C17.489 21.691 18.454 36.832 18.44 51.699 C18.442 53.664 18.463 55.629 18.481 57.593 C18.522 62.143 18.541 66.692 18.558 71.242 C18.58 77.033 18.614 82.823 18.665 88.613 C18.681 90.551 18.693 92.49 18.695 94.428 C18.703 104.119 19.308 113.436 21 123 C21.072 123.409 21.144 123.819 21.219 124.24 C23.939 139.387 29.866 156.009 39.59 168.062 C41.253 170.161 42.13 172.487 43 175 C43.66 175 44.32 175 45 175 C45 175.66 45 176.32 45 177 C45.299 177.113 45.299 177.113 46.812 177.688 C49.583 179.038 50.626 181.363 52 184 C46.535 183.622 42.79 182.161 38.125 179.312 C37.517 178.952 36.908 178.593 36.298 178.234 C31.414 175.338 26.655 172.251 22 169 C22 168.34 22 167.68 22 167 C21.693 166.903 21.387 166.806 21.071 166.705 C17.452 165.427 15.068 163.565 12.312 160.938 C11.444 160.13 10.576 159.323 9.707 158.516 C9.486 158.308 9.486 158.308 8.366 157.26 C6.997 155.997 5.605 154.768 4.199 153.547 C3.747 153.151 3.295 152.756 2.829 152.348 C1.964 151.593 1.096 150.842 0.224 150.095 C-2.248 147.914 -3.737 146.056 -5 143 C-5.66 143 -6.32 143 -7 143 C-8.017 141.972 -8.877 140.981 -9.758 139.844 C-10.022 139.51 -10.286 139.176 -10.558 138.833 C-11.424 137.729 -12.276 136.616 -13.125 135.5 C-13.417 135.118 -13.708 134.737 -14.009 134.343 C-22.957 122.542 -28.364 110.135 -32.69 96.01 C-39.372 74.245 -48.266 55.322 -62.625 37.562 C-62.891 37.233 -63.157 36.903 -63.431 36.564 C-68.646 30.136 -74.268 24.099 -80.812 19 C-81.229 18.671 -81.646 18.342 -82.075 18.003 C-88.474 13.004 -95.208 8.445 -102 4 C-101.67 2.35 -101.34 0.7 -101 -1 C-89.442 -5.615 -78.36 -9.294 -66 -11 C-65.698 -11.046 -65.698 -11.046 -64.167 -11.279 C-41.038 -14.564 -20.239 -11.477 0 0 Z " fill="#EDBD65" transform="translate(330,209)"/>
<path d="M0 0 C0.508 0.001 1.016 0.002 1.54 0.003 C20.789 0.11 39.582 3.548 56.812 12.375 C56.754 14.787 56.498 16.697 54.734 18.441 C53.275 19.47 51.785 20.4 50.25 21.312 C49.146 22.009 48.043 22.707 46.941 23.406 C46.672 23.574 46.672 23.574 45.309 24.426 C30.667 33.713 18.179 46.88 8.812 61.375 C8.576 61.728 8.34 62.08 8.097 62.443 C-1.373 76.632 -8.057 93.035 -12.758 109.354 C-16.304 121.656 -20.814 132.571 -28.898 142.719 C-30.555 144.802 -31.91 147.044 -33.188 149.375 C-33.847 149.375 -34.508 149.375 -35.188 149.375 C-35.32 149.641 -35.453 149.906 -35.59 150.18 C-36.456 151.911 -37.322 153.643 -38.188 155.375 C-38.847 155.375 -39.508 155.375 -40.188 155.375 C-40.445 155.958 -40.703 156.54 -40.969 157.141 C-42.17 159.539 -43.78 161.265 -45.688 163.125 C-45.996 163.441 -46.304 163.757 -46.621 164.082 C-46.921 164.38 -47.222 164.678 -47.531 164.984 C-47.801 165.252 -48.071 165.52 -48.35 165.796 C-49.188 166.375 -49.188 166.375 -51.188 166.375 C-51.188 167.035 -51.188 167.695 -51.188 168.375 C-51.927 169.238 -51.927 169.238 -52.996 170.117 C-53.404 170.455 -53.813 170.793 -54.233 171.141 C-54.692 171.507 -55.152 171.873 -55.625 172.25 C-56.109 172.639 -56.594 173.027 -57.093 173.427 C-69.054 182.93 -81.256 191.055 -95.188 197.375 C-95.506 195.763 -95.582 194.948 -95.188 193.375 C-93.899 191.484 -92.379 189.824 -90.829 188.147 C-85.887 182.767 -82.042 177.345 -78.861 170.739 C-78.171 169.341 -77.43 167.983 -76.672 166.621 C-73.601 160.999 -71.334 155.305 -69.5 149.188 C-69.31 148.566 -69.12 147.945 -68.924 147.304 C-65.114 134.24 -63.731 121.019 -63.714 107.475 C-63.708 105.537 -63.685 103.599 -63.664 101.661 C-63.626 98.009 -63.601 94.357 -63.583 90.705 C-63.549 84.166 -63.491 77.628 -63.429 71.089 C-63.408 68.809 -63.392 66.53 -63.382 64.25 C-63.27 41.525 -63.27 41.525 -60 33.75 C-59.779 33.206 -59.557 32.663 -59.329 32.103 C-54.193 19.974 -45.7 10.968 -33.449 5.87 C-22.729 1.663 -11.472 -0.049 0 0 Z " fill="#EDBD65" transform="translate(667.1875,196.625)"/>
<path d="M0 0 C0.33 0 0.66 0 1 0 C1 69.3 1 138.6 1 210 C0.01 210.33 -0.98 210.66 -2 211 C-3.688 210.062 -3.688 210.062 -5 209 C-4.717 208.878 -4.435 208.757 -4.143 208.631 C-2.794 207.878 -1.964 207.217 -1 206 C-0.369 203.292 -0.453 200.583 -0.481 197.819 C-0.475 196.966 -0.468 196.114 -0.458 195.262 C-0.438 192.92 -0.443 190.578 -0.451 188.236 C-0.456 185.71 -0.438 183.185 -0.423 180.659 C-0.399 176.284 -0.391 171.908 -0.392 167.532 C-0.394 161.206 -0.373 154.88 -0.348 148.553 C-0.306 138.289 -0.283 128.025 -0.271 117.761 C-0.259 107.79 -0.239 97.819 -0.208 87.848 C-0.206 87.233 -0.204 86.619 -0.202 85.986 C-0.192 82.903 -0.182 79.82 -0.172 76.737 C-0.089 51.158 -0.035 25.579 0 0 Z " fill="#ACAF96" transform="translate(453,202)"/>
</svg>
